<?xml version="1.0" encoding="utf-8"?>
<!-- Generator: Adobe Illustrator 23.0.5, SVG Export Plug-In . SVG Version: 6.00 Build 0)  -->
<svg version="1.1" id="Layer_1" xmlns="http://www.w3.org/2000/svg" xmlns:xlink="http://www.w3.org/1999/xlink" x="0px" y="0px"
	 viewBox="0 0 500 500" style="enable-background:new 0 0 500 500;" xml:space="preserve">
<style type="text/css">
	.st0{fill:#FFFFFF;}
</style>
<path class="st0" d="M247.92,10.76c-41.83,0-82.11,12.46-116.48,36.03c-33.56,23.02-59.36,55.04-74.62,92.6
	c-10.02,24.65-15.1,50.74-15.1,77.57c0,113.7,92.5,206.2,206.2,206.2s206.2-92.5,206.2-206.2S361.62,10.76,247.92,10.76z
	 M369.16,358.16V142.44h-20v96.17h-62.08v-98.33h-20v167.04h20v-48.71h62.08v114.56c-29.16,18.96-63.93,29.99-101.24,29.99
	c-102.67,0-186.2-83.53-186.2-186.2c0-21.98,3.77-43.4,11.22-63.8h136.54v140.56h-49.12V236.7h-20v77.02h89.12V133.16H81.59
	c31.48-62.67,95.23-102.4,166.33-102.4c61.74,0,116.56,30.21,150.45,76.62H150.36v20h89.72v199.38h20V127.38h151.04
	c14.66,26.59,23,57.13,23,89.58C434.12,273.36,408.91,323.99,369.16,358.16z"/>
</svg>
